<svg width="40" height="12" viewBox="0 0 40 12" xmlns="http://www.w3.org/2000/svg">
  <path d="M17.014 1.345L13.469 10.703H10.619L8.878 3.148C8.746 2.59 8.631 2.375 8.194 2.141C7.525 1.786 6.437 1.451 5.5 1.246L5.553 1.345H10.066C10.631 1.345 11.138 1.738 11.269 2.354L12.198 7.785L14.462 1.345H17.014ZM34.016 7.293C34.027 4.778 30.605 4.681 30.631 3.618C30.641 3.243 30.993 2.846 31.776 2.747C32.16 2.699 33.057 2.662 34.08 3.138L34.532 1.098C33.916 0.884 33.131 0.677 32.178 0.677C29.804 0.677 28.12 1.915 28.109 3.697C28.093 5.004 29.29 5.737 30.19 6.179C31.116 6.628 31.436 6.91 31.431 7.305C31.426 7.901 30.727 8.163 30.078 8.174C28.989 8.19 28.322 7.909 27.794 7.696L27.326 9.806C27.857 10.014 28.813 10.201 29.799 10.211C32.33 10.211 33.998 8.989 34.009 7.098L34.016 7.293ZM26.437 10.703H29.014L26.737 1.345H24.577C24.074 1.345 23.647 1.651 23.463 2.108L19.5 10.703H22.053L22.631 9.098H25.926L26.437 10.703ZM23.463 7.123L24.761 3.81L25.53 7.123H23.463ZM38.5 1.345L36.363 10.703H33.916L36.053 1.345H38.5Z" fill="#1434CB"/>
</svg>